<?xml version="1.0" standalone="no"?>
<svg viewBox="0 0 200 200" xmlns="http://www.w3.org/2000/svg">
  <path fill="#FF0066" d="M44.6,-76.9C57.5,-69.7,67.7,-57.3,76.2,-43.7C84.7,-30,91.4,-15,92.7,0.8C94.1,16.6,90.1,33.1,81.1,45.9C72.1,58.7,58.2,67.7,43.8,74.2C29.5,80.7,14.7,84.7,-0.1,84.8C-15,85,-29.9,81.4,-43.5,74.4C-57,67.5,-69.2,57.2,-76.9,44.3C-84.5,31.3,-87.6,15.7,-86.8,0.4C-86,-14.8,-81.4,-29.5,-74.4,-43.6C-67.4,-57.7,-58.1,-71,-45.3,-78.3C-32.5,-85.7,-16.2,-86.9,-0.2,-86.5C15.8,-86.1,31.6,-84.1,44.6,-76.9Z" transform="translate(100 100)" />
  <path fill="#FFD6E8" d="M43.6,-65.2C56.2,-68.2,65.9,-55.9,69.6,-42.5C73.3,-29.1,71,-14.5,71.3,0.2C71.6,14.9,74.5,29.8,69.1,40.1C63.6,50.5,49.7,56.2,36.8,61.7C23.8,67.3,11.9,72.6,-1.1,74.6C-14.2,76.5,-28.4,75.2,-38,67.8C-47.6,60.3,-52.6,46.8,-60,34.5C-67.4,22.2,-77.2,11.1,-81.1,-2.2C-85,-15.6,-82.9,-31.1,-72.8,-38.8C-62.7,-46.4,-44.6,-46.2,-31.1,-42.6C-17.7,-39.1,-8.8,-32.3,3.3,-38C15.5,-43.8,31,-62.2,43.6,-65.2Z" transform="translate(100 100)" />
</svg>
