<svg id="brand" viewBox="0 0 223 65">
    <g id="Wireframes" stroke="none" stroke-width="1">
        <path d="M18.5282522,3.2975343 C17.6417464,3.87821499 16.4313498,4.07048482 15.3835437,4.26533545 C14.2544424,4.45889567 13.1253411,4.6511655 11.9962397,4.84601613 C10.2219376,5.10409644 8.36634025,5.42540642 6.59203815,5.81252687 C6.43073796,5.87833735 6.02684229,6.58805819 6.02684229,7.1042188 C5.94683739,11.7496643 6.02684229,15.6853889 6.10813758,19.3617429 C6.18943288,20.7179549 6.35073307,22.1361061 6.51074286,23.4910277 C6.59203815,24.3297887 6.67333345,25.2343602 6.75333834,26.1363509 C6.83463364,27.1054424 7.88243968,27.8138728 9.33414139,27.8138728 C9.81804196,27.8138728 10.2219376,27.7493528 10.7058382,27.621603 C11.351039,27.4912725 11.8349395,27.3622323 12.3188401,27.3622323 C13.1253411,27.3622323 14.1731471,27.6835423 14.4957475,29.0397543 C14.5757524,29.7494751 14.4157426,30.2656357 14.0118469,30.7172763 C13.4479414,31.2334369 12.5601452,31.5560373 11.351039,31.6218477 C9.33414139,31.6850774 8.12374476,31.7495975 7.63984419,32.1367179 C7.23723892,32.4593183 7.23723892,33.361309 7.31853421,35.0401214 L7.31853421,35.103351 C7.4798344,38.5242055 7.63984419,41.9437695 7.80243478,45.3633335 C7.88243968,49.0409779 8.04373987,52.8476624 8.20504006,56.5885364 C8.28633535,58.2660584 8.52764044,59.9435803 8.77023592,61.5565823 C8.93153611,62.4611537 8.77023592,63.1708746 8.28633535,63.6870352 C7.80243478,64.1373853 7.15594362,64.3954656 6.26943777,64.5245058 L5.7868276,64.5245058 C4.89774095,64.5245058 4.1725353,64.2677159 3.52733454,63.8147849 C2.96213867,63.2986243 2.64082869,62.6534235 2.64082869,61.8791826 L2.64082869,56.3962666 L2.64082869,53.749653 L3.04343397,53.685133 C2.80212888,50.4591292 2.5595334,47.1698957 2.31822831,43.8793718 C1.67302755,33.9432801 1.02782679,23.6213583 0.382626027,13.5562264 C0.301330731,12.1354943 0.382626027,10.7173431 0.462630921,9.36113106 C0.543926217,8.4591404 0.543926217,7.42552878 0.543926217,6.45772763 C0.543926217,6.0073775 0.462630921,5.49121689 0.301330731,4.97505628 C0.220035435,4.6511655 0.0587352446,4.32985552 0.0587352446,4.00596474 C-0.101274544,3.10397408 0.0587352446,2.32844276 0.623931112,1.81228215 C1.34913677,1.10385172 2.5595334,0.845771411 4.01123511,1.03933164 C4.41513079,1.10385172 4.81773606,1.10385172 5.38164153,1.10385172 C6.43073796,1.10385172 7.4798344,0.974811564 8.52764044,0.909001086 L8.68894063,0.845771411 C9.57673688,0.779960934 10.4632427,0.650920781 11.351039,0.458650954 C12.5601452,0.263800325 13.8505467,0.0702400961 15.0596529,0.00701042149 C16.1900447,-0.0575096546 17.4804462,0.329610802 18.5282522,0.909001086 C18.9321479,1.16837179 19.0121528,1.81228215 19.0121528,2.13617293 C19.0121528,2.45748291 18.9321479,3.0381636 18.5282522,3.2975343 M54.8220855,63.3631444 C54.57949,63.8147849 54.0955894,64.1373853 53.2877981,64.3309455 C52.7238926,64.4599857 52.1586967,64.5245058 51.5947913,64.5245058 C50.2243848,64.5245058 49.2552933,63.9438251 48.6913878,62.8469838 L48.4500827,62.3953432 C47.2396861,59.8790603 46.0305799,57.2337372 45.1427836,54.5897044 C43.8523821,50.6539798 42.6432759,46.6537351 41.5141746,42.7825305 C40.7876785,40.3952877 40.0611824,37.9435248 39.2559719,35.4917619 C37.9655704,31.2334369 36.5125783,26.7170315 34.8195715,21.6844656 C34.4969711,20.7179549 34.0943658,20.0069436 33.5291699,19.490783 C32.722669,18.7810622 31.674863,18.0726317 31.3509722,18.0726317 L31.0296622,18.2003815 C29.7392607,18.6533124 28.528864,19.104953 28.6901642,20.5876243 C29.0927695,23.8781482 29.4166603,27.2331921 29.7392607,30.523716 C30.061861,33.6851998 30.3844614,36.9112036 30.7870667,40.135917 C31.3509722,45.1684829 32.0774682,50.330089 32.722669,55.2981349 L32.8039643,55.4916951 C32.8839692,56.2027063 33.1252743,56.9769472 33.3678698,57.7498978 C33.449165,58.0092685 33.5291699,58.2015383 33.6104652,58.460909 C34.0943658,60.2674711 33.2878649,61.4933526 31.1909624,61.9449931 C30.868362,62.0095132 30.6257665,62.0095132 30.3031661,62.0095132 C28.0449635,62.0095132 27.5610629,60.0739109 27.3997627,59.4919398 C27.0771623,58.3305784 26.995867,57.104697 26.8345668,55.9433356 C26.8345668,55.4916951 26.7545619,55.105865 26.7545619,54.6542245 C26.5119665,52.6541021 26.1893661,50.7184999 25.948061,48.7183775 C25.3828651,43.8148517 24.7376644,38.7822858 24.1737589,33.7497198 C23.7711536,29.9417449 23.5285581,26.0718308 23.2859627,22.3296664 C23.2059578,20.7179549 23.1259529,19.104953 22.9646527,17.4919511 C22.8833574,16.2015495 22.8020621,14.9098576 22.7220572,13.6194561 C22.560757,11.1689836 22.3194519,8.65141022 22.1568613,6.13641765 C22.1568613,5.7480068 21.9968515,5.23184619 21.9155562,4.78020565 C21.5929559,3.74917484 21.3516508,2.71685362 21.9155562,1.9413223 C22.560757,1.16837179 24.1737589,0.974811564 25.7867608,0.779960934 C26.1893661,0.715440857 26.5119665,0.715440857 26.8345668,0.650920781 C29.1740648,0.329610802 31.674863,0.00701042149 34.255666,0.00701042149 C37.1590694,0.00701042149 39.8198774,0.458650954 42.1593753,1.36193202 C43.8523821,2.00713278 44.8201833,2.65233354 45.0627788,3.48980413 C45.3853791,4.32985552 45.0627788,5.23184619 44.1749825,6.39320756 C42.6432759,8.26558017 40.9489787,10.0721423 39.2559719,11.8141844 C38.6107711,12.4593851 37.8842751,13.1678156 37.2390743,13.8775364 C36.9977692,14.1369071 36.6751689,14.393697 36.4325734,14.6530677 C36.3525685,14.6530677 36.3525685,14.6530677 36.2712732,14.7162974 C41.1902838,20.2017943 42.7232808,26.5879914 44.1749825,32.7173986 L44.4975829,33.9432801 C45.6266842,38.7177657 47.2396861,43.4909609 48.7726831,48.0718863 L49.1752884,49.4280983 C50.1430895,52.4605419 51.3534862,55.427175 52.5638828,58.2015383 C52.8051879,58.7176989 53.2077932,59.2351499 53.5303935,59.7513105 C53.9342892,60.2674711 54.3368945,60.7191117 54.57949,61.2997923 C54.9020904,62.0095132 55.2246907,62.7179436 54.8220855,63.3631444 M37.8042702,6.26416741 L38.690776,5.36217674 C38.9333715,5.10409644 39.0946717,4.84601613 39.0133764,4.6511655 C38.9333715,4.45889567 38.5294758,4.26533545 37.8842751,4.13500489 C36.836469,3.94273507 35.7073677,3.81369491 34.5782664,3.81369491 C32.722669,3.81369491 30.7870667,4.13500489 28.6088689,4.6511655 C28.287559,4.78020565 27.7223631,5.36217674 27.7223631,5.62025705 C27.7223631,7.49004885 27.8836633,9.36113106 28.0449635,11.2980237 C28.1249684,11.8787044 28.1249684,12.4593851 28.2062637,13.0387754 C28.6088689,12.9110256 29.0127646,12.8452152 29.335365,12.7819855 C30.4644663,12.5871349 31.4322675,12.4593851 31.916168,12.0064542 C34.0943658,10.2644121 35.9486728,8.19976969 37.8042702,6.26416741 M85.6304218,32.5883585 C85.5491265,34.4581503 85.4678312,36.395043 85.4678312,38.2661252 C85.3878263,44.2019722 84.258725,50.0732991 81.919227,55.6220256 C80.5488206,58.9125495 78.6132183,62.5901939 73.370317,64.1373853 C72.4838111,64.3954656 71.51601,64.5245058 70.5482088,64.5245058 C67.5635101,64.5245058 65.1440072,63.2986243 64.2575014,61.3643124 C62.6432091,57.8802283 60.7889021,53.8141731 59.9824012,49.6216586 C59.0146,44.911693 58.5306994,40.2017275 58.0467989,36.395043 C57.8854987,35.0401214 57.7241985,33.8142399 57.6429032,32.7173986 C57.0789977,22.4599969 58.3693993,14.6530677 61.5141078,7.03840832 C62.3218991,5.23184619 63.7736008,3.62013469 65.1440072,2.07165286 C65.3866027,1.81228215 65.6279078,1.55549225 65.789208,1.29612154 C67.0796095,-0.122029731 68.8539116,-0.315589959 70.7082186,0.845771411 C70.8708092,0.909001086 71.1934096,0.974811564 71.6773102,0.974811564 C72.0799154,0.974811564 72.4025158,0.909001086 72.6451113,0.845771411 C74.096813,0.263800325 75.2259143,0.00701042149 76.2737204,0.00701042149 C78.1293178,0.00701042149 79.4997242,0.909001086 81.0327212,3.16720375 C84.5813254,8.4591404 84.9852211,14.3291769 85.3878263,19.9424235 C85.4678312,20.7811845 85.5491265,21.6199455 85.6304218,22.3941864 C85.8717269,25.8137505 85.7904316,29.2333145 85.6304218,32.5883585 M77.2415215,9.62050177 C77.0002164,8.78174078 76.5963208,7.81393963 75.8711151,6.65257826 C75.7098149,6.39320756 75.2259143,6.07060718 74.5807136,5.81252687 C73.8542175,5.49121689 73.0477166,5.23184619 72.0799154,4.97505628 C71.6773102,4.84601613 71.2734145,4.71568558 70.8708092,4.58664543 C70.7895139,4.58664543 70.7082186,4.6511655 70.6282137,4.71568558 C70.3056133,5.03957636 69.9030081,5.36217674 69.6604126,5.7480068 C69.3378122,6.39320756 69.0152118,6.97388824 68.6926114,7.62037941 C67.6448054,9.42694154 66.6757139,11.2980237 66.1931037,13.2323356 C66.1118084,13.8130163 65.9505082,14.393697 65.789208,14.9743777 C64.741402,19.6198232 63.6923055,24.3943088 63.8536057,29.0397543 C64.0962012,35.8143623 65.2253025,42.7180104 66.3544039,49.3635783 C66.5157041,50.3958995 66.6757139,51.3624102 66.8383044,52.3315018 C67.1609048,54.5251844 68.3700111,56.7175765 69.6604126,58.9757792 C70.0643083,59.6867904 70.6282137,60.0739109 71.1934096,60.0739109 C71.7573151,60.0739109 72.3225109,59.7513105 72.7251162,59.1706298 L73.2090168,58.460909 C74.7420138,56.3962666 76.3550157,54.2671041 76.8389162,52.007611 C78.2093227,46.1375745 79.0158236,40.0739777 79.7423197,34.2013604 L79.7423197,33.8142399 C80.7901257,25.5556702 79.1771238,17.2971004 77.2415215,9.62050177 M103.613457,4.07048482 C102.565651,4.3943756 100.870064,4.07048482 100.226153,4.58664543 C98.6931564,5.94156702 97.1614498,7.49004885 96.5162491,9.23209091 C95.5484479,11.9419341 95.0645474,14.8453375 94.741947,17.6842209 C94.1767511,23.2329474 93.7741458,28.7829644 93.20895,35.9434024 C94.4193466,41.8147294 95.9510532,49.2977678 97.4827598,56.7175765 C97.5640551,57.4285878 97.8879459,58.0737885 98.2905512,58.6544692 C99.662248,60.9759016 100.387454,61.0404216 102.484356,59.2351499 C103.613457,58.2660584 104.662554,58.460909 105.629065,59.4287101 C107.082057,60.9759016 106.19426,63.1708746 103.936058,63.879305 C99.2583523,65.4923069 94.5793564,64.0083451 93.0476498,59.4919398 C89.8229364,50.1378192 88.0473439,40.6520776 88.4512396,31.041167 C88.693835,23.6858784 89.6603458,16.3305897 91.0320426,9.03982108 C91.4346479,6.58805819 93.6128456,4.19952497 95.5484479,2.07165286 C97.5640551,-0.122029731 100.710054,-0.315589959 103.854763,0.394130878 C105.307755,0.715440857 106.274265,1.55549225 105.791655,2.7813737 C105.469055,3.2975343 104.499963,3.81369491 103.613457,4.07048482 M138.373003,63.557995 C137.729093,64.2677159 136.194805,64.5245058 134.985699,64.5245058 C133.452702,64.5245058 132.323601,63.7502648 132.002291,62.2663031 C131.438385,60.2029511 130.87319,58.0737885 130.307994,56.0078557 C129.664083,53.6206129 128.936297,51.1056203 128.291096,48.652567 C127.807196,46.4601748 127.324585,44.2664922 126.840685,42.1373297 C126.195484,39.4920066 125.631579,36.7821634 124.903792,34.1368403 C124.662487,33.1045191 124.339887,32.0076778 124.097291,30.9108365 C123.12949,27.0396319 122.161689,23.0393872 119.984782,19.104953 C119.823481,19.169473 119.662181,19.2972228 119.500881,19.4262629 C118.935685,19.8133834 118.37178,20.0714637 118.129184,20.4585842 C116.436177,22.910347 114.90318,25.6201902 115.387081,29.0397543 C115.709681,31.7495975 115.872272,34.5239608 115.950986,37.1692839 C116.032282,39.2339263 116.193582,41.3630888 116.356172,43.4277313 C116.597478,45.8136837 117.001373,48.2022169 117.403979,50.5894597 C117.726579,52.2011712 117.967884,53.9445037 118.21177,55.6220256 C118.37178,56.6543469 118.290484,57.8802283 117.967884,59.1061098 C117.565279,60.7191117 116.193582,61.3643124 113.935379,60.9126719 C111.918482,60.524261 111.918482,59.4919398 111.839767,58.3963889 L111.839767,58.1370182 C111.758472,55.5575056 111.434581,52.9767025 111.194566,50.4591292 C111.031976,48.5880469 110.78938,46.6537351 110.629371,44.7181328 C110.14547,37.5564043 109.741574,31.5560373 109.500269,25.4253396 C109.338969,20.7811845 109.257674,16.0066989 109.177669,11.4902936 C109.177669,9.10305076 109.096374,6.71709834 109.096374,4.3943756 C109.096374,4.13500489 109.016369,3.87821499 108.936364,3.55432421 C108.855068,3.16720375 108.855068,2.71685362 108.855068,2.32844276 C109.016369,1.16837179 109.338969,0.523171031 109.902874,0.329610802 C110.30548,0.134760172 110.951971,0.00701042149 111.515876,0.00701042149 C111.999777,0.00701042149 112.644978,0.0715304976 112.968868,0.329610802 C114.41928,1.62001232 115.145776,2.65233354 115.227071,3.55432421 C115.387081,6.39320756 115.307076,9.23209091 115.227071,12.0064542 C115.227071,13.0387754 115.145776,14.1369071 115.145776,15.1692283 L115.145776,16.1357391 L115.145776,16.3951098 L115.307076,16.5228595 C115.790977,16.2015495 116.274877,15.9421788 116.758778,15.6195784 C117.967884,14.9098576 119.258286,14.1369071 120.387387,13.2323356 C122.404284,11.7496643 124.419892,10.2011825 126.275489,8.7159303 C127.484595,7.74941956 128.774997,6.78161842 129.985393,5.81252687 L130.227989,5.68477712 C130.87319,5.16732611 131.598395,4.58664543 132.486192,4.58664543 C133.051387,4.58664543 133.533998,4.78020565 134.097903,5.16732611 C134.985699,5.68477712 135.47089,6.45772763 135.47089,7.16873887 C135.47089,7.94297979 135.065704,8.58689015 134.340499,9.23209091 C133.131392,10.0721423 131.922286,10.974133 130.711889,11.8787044 C129.098888,13.0387754 127.484595,14.2646568 125.871593,15.4905383 C125.548993,15.7486186 125.226393,16.5228595 125.387693,16.8467503 C129.018883,25.1685497 130.793185,33.6851998 132.162301,41.6856892 C132.486192,43.8793718 133.211397,46.0730544 133.856598,48.2022169 C134.017898,48.652567 134.180489,49.1687276 134.340499,49.6848882 C135.065704,51.9430909 135.873496,54.3303337 136.921302,57.2995476 C137.083892,57.8157082 137.405202,58.3305784 137.647798,58.782219 C137.889103,59.4287101 138.212993,60.0739109 138.453008,60.7191117 C138.858194,62.1372629 138.858194,63.0418344 138.373003,63.557995 M161.518935,35.4272418 C163.051932,41.7502093 163.213233,48.0718863 162.084131,54.3961442 C161.518935,57.4931079 160.471129,60.459741 157.809031,62.8469838 C155.712129,64.7193564 152.808725,64.5245058 150.066622,64.5245058 C147.001918,64.4599857 143.85721,61.6211023 144.663711,58.0737885 C144.50241,54.3303337 144.17981,50.330089 144.01851,46.3943644 C143.694619,35.2336816 143.373309,24.0717084 142.889409,12.9755457 C142.728108,9.62050177 142.000322,6.26416741 141.436416,2.97364352 C141.033811,0.974811564 142.324213,-0.186549807 144.986311,0.0702400961 C147.485819,0.263800325 150.066622,0.587691107 152.56742,0.974811564 C158.535527,1.81228215 162.325436,7.03840832 159.905933,11.4902936 C158.696827,13.7484962 156.67993,15.7486186 155.148223,17.9435916 C154.744327,18.4597522 154.341722,19.490783 154.663032,19.8133834 C159.260733,24.3943088 160.148529,29.9417449 161.518935,35.4272418 M155.309523,10.5237828 C155.712129,9.62050177 155.793424,8.4591404 155.632124,7.55456893 C154.986923,5.03957636 151.922219,3.48980413 147.485819,4.52341575 C147.485819,8.32880984 147.485819,12.0064542 147.567114,15.6195784 C147.567114,16.071219 147.807129,16.7822302 148.212315,16.9112704 C148.61492,17.1035402 149.420131,16.8467503 149.905322,16.5228595 C152.56742,15.0388978 154.180422,12.9110256 155.309523,10.5237828 M151.518324,23.1684274 C150.873123,22.5232266 149.501426,22.3941864 148.534915,22.0083564 C148.212315,22.7813069 147.647119,23.5555478 147.647119,24.266559 C147.969719,30.8463164 148.291029,37.4273642 148.61492,44.0084119 C148.937521,49.1042076 149.180116,54.2671041 149.664017,59.4287101 C149.744021,60.0739109 150.630527,61.0404216 151.357023,61.1707522 C152.24482,61.2997923 153.615226,60.9126719 154.341722,60.459741 C155.066928,59.9435803 155.470823,58.9757792 155.873429,58.2015383 C158.050336,54.5897044 157.890326,50.6539798 157.647731,46.7827752 C157.890326,46.7827752 158.050336,46.7827752 158.212927,46.7182551 C157.406426,41.9437695 156.84123,37.1047638 155.793424,32.3302782 C155.066928,29.1042744 154.260427,25.7492304 151.518324,23.1684274 M193.375078,32.5883585 C193.295073,34.4581503 193.215068,36.395043 193.215068,38.2661252 C193.133773,44.2019722 192.004671,50.0732991 189.666464,55.6220256 C188.294767,58.9125495 186.359165,62.5901939 181.117554,64.1373853 C180.228467,64.3954656 179.261956,64.5245058 178.294155,64.5245058 C175.310747,64.5245058 172.891244,63.2986243 172.003448,61.3643124 C170.389155,57.8802283 168.536139,53.8141731 167.728348,49.6216586 C166.761837,44.911693 166.277936,40.2017275 165.792745,36.395043 C165.632735,35.0401214 165.470145,33.8142399 165.38885,32.7173986 C164.824944,22.4599969 166.116636,14.6530677 169.260054,7.03840832 C170.067845,5.23184619 171.518257,3.62013469 172.891244,2.07165286 C173.132549,1.81228215 173.373854,1.55549225 173.536445,1.29612154 C174.826846,-0.122029731 176.601148,-0.315589959 178.454165,0.845771411 C178.616756,0.909001086 178.939356,0.974811564 179.423257,0.974811564 C179.827152,0.974811564 180.148462,0.909001086 180.391058,0.845771411 C181.841469,0.263800325 182.971861,0.00701042149 184.020957,0.00701042149 C185.873974,0.00701042149 187.246961,0.909001086 188.777377,3.16720375 C192.327272,8.4591404 192.731167,14.3291769 193.133773,19.9424235 C193.215068,20.7811845 193.295073,21.6199455 193.375078,22.3941864 C193.617673,25.8137505 193.537668,29.2333145 193.375078,32.5883585 M184.988758,9.62050177 C184.744872,8.78174078 184.343558,7.81393963 183.615771,6.65257826 C183.455761,6.39320756 182.971861,6.07060718 182.32666,5.81252687 C181.601454,5.49121689 180.793663,5.23184619 179.827152,4.97505628 C179.423257,4.84601613 179.019361,4.71568558 178.616756,4.58664543 C178.53546,4.58664543 178.454165,4.6511655 178.37545,4.71568558 C178.05285,5.03957636 177.648954,5.36217674 177.406359,5.7480068 C177.085049,6.39320756 176.761158,6.97388824 176.439848,7.62037941 C175.390752,9.42694154 174.42166,11.2980237 173.93776,13.2323356 C173.857755,13.8130163 173.697745,14.393697 173.536445,14.9743777 C172.487348,19.6198232 171.439542,24.3943088 171.599552,29.0397543 C171.842148,35.8143623 172.971249,42.7180104 174.10035,49.3635783 C174.26165,50.3958995 174.42166,51.3624102 174.58296,52.3315018 C174.906851,54.5251844 176.115957,56.7175765 177.406359,58.9757792 C177.808964,59.6867904 178.37545,60.0739109 178.939356,60.0739109 C179.504552,60.0739109 180.068457,59.7513105 180.472353,59.1706298 L180.956254,58.460909 C182.48667,56.3962666 184.100962,54.2671041 184.584863,52.007611 C185.955269,46.1375745 186.76306,40.0739777 187.488266,34.2013604 L187.488266,33.8142399 C188.537362,25.5556702 186.924361,17.2971004 184.988758,9.62050177 M219.101813,55.9433356 C219.747014,57.4931079 220.713524,59.0415897 221.602611,60.524261 C222.407822,61.8791826 222.570412,63.0418344 220.713524,63.9438251 C218.860508,64.7193564 216.198409,64.2677159 215.634504,62.7824637 C213.940207,58.7176989 212.488505,54.5897044 210.955508,50.4591292 C210.230302,48.7183775 209.505097,47.0395651 208.537296,44.7181328 C207.892095,45.7491636 207.486909,46.2666146 207.326899,46.8460049 C205.873907,51.686301 204.504791,56.5240163 203.133094,61.3643124 C202.406598,64.0083451 200.794887,64.8483965 197.647597,64.3954656 C196.278481,64.2677159 195.95459,63.6870352 196.278481,62.5901939 C199.100589,53.9445037 201.922697,45.2975231 204.504791,36.5886032 C204.907396,35.0401214 204.504791,33.2993697 204.099605,31.6850774 C202.569189,25.4911501 200.874891,19.2972228 199.100589,13.1678156 C198.616689,11.4257735 197.808897,9.74825152 196.842387,8.13654001 C195.95459,6.78161842 195.63199,5.62025705 197.487587,4.78020565 C199.100589,4.00596474 201.680102,4.91053621 202.487893,6.32868748 C203.133094,7.42552878 203.69829,8.52237007 204.099605,9.68373144 C205.148701,13.2981461 206.117793,16.9112704 207.085594,20.5231042 C207.246894,21.0392648 207.486909,21.5554254 207.730795,22.0715861 C208.052105,22.0715861 208.375995,22.1361061 208.697305,22.1361061 C210.150298,17.3616205 211.600709,12.5871349 212.972406,7.87845971 C213.456306,6.0073775 213.456306,3.94273507 214.342812,2.20069301 C214.906718,1.23160147 216.763605,0.0702400961 218.054007,0.00701042149 C220.150909,-0.0575096546 221.441311,1.9413223 220.95741,3.48980413 C219.989609,6.52353811 219.101813,9.55598169 218.054007,12.5226148 C216.279705,17.427431 214.342812,22.2651463 212.72981,27.2331921 C211.198104,31.9431577 210.795498,36.5886032 213.293716,41.3630888 C215.795804,46.0730544 217.166211,51.1056203 219.101813,55.9433356"></path>
    </g>
</svg>