<svg width="100%" height="100%" viewBox="0 0 600 600" xmlns="http://www.w3.org/2000/svg">
    <g transform="translate(320,300)">
        <path
        d="M181.3,-141.5C224.6,-90.4,241.9,-15.6,224.8,48C207.6,111.5,155.9,163.9,92.7,195.5C29.5,227,-45.1,237.9,-105.7,211.7C-166.3,185.5,-212.8,122.3,-227.6,53.2C-242.5,-16,-225.6,-91.3,-182.4,-142.3C-139.2,-193.3,-69.6,-220.2,-0.3,-219.9C69.1,-219.7,138.1,-192.5,181.3,-141.5Z"
        fill="#3DA0CF" />
        <path
        d="M144.7,-104.6C182.6,-67.9,204.9,-8,187.3,32.3C169.8,72.7,112.5,93.6,53.4,128.9C-5.6,164.3,-66.4,214.1,-111.3,203.2C-156.2,192.3,-185.4,120.6,-189.2,56.7C-193,-7.3,-171.6,-63.5,-135.8,-99.6C-100.1,-135.8,-50,-151.9,1.7,-153.3C53.4,-154.6,106.9,-141.2,144.7,-104.6Z"
        fill="#0D73A4" />
    </g>
</svg>