<svg width="180" height="19" viewBox="0 0 243.42 25.69" xmlns="http://www.w3.org/2000/svg">
  <title>Heart + Bones</title>
  <path fill="#0E70A3" d="M9.21 6.83a6.38 6.38 0 0 0-3.65 1 6.72 6.72 0 0 0-2.32 2.73h-.43V0H0v25.18h2.81V15.9a7 7 0 0 1 1.46-4.66 5 5 0 0 1 4-1.75 4.36 4.36 0 0 1 3.42 1.4A6.13 6.13 0 0 1 13 15.11v10.07h2.81V14.53q0-3.85-1.82-5.77a6.21 6.21 0 0 0-4.78-1.93zm27.25 2.81a8.46 8.46 0 0 0-2.63-2A8.32 8.32 0 0 0 30 6.83a8.94 8.94 0 0 0-3.47.67 8.69 8.69 0 0 0-2.79 1.83 8.29 8.29 0 0 0-1.85 2.79 9.08 9.08 0 0 0-.67 3.49v.86a10.38 10.38 0 0 0 .65 3.74 8.77 8.77 0 0 0 1.8 2.91A7.89 7.89 0 0 0 26.46 25a9 9 0 0 0 3.51.67 8.77 8.77 0 0 0 5.49-1.57 7.88 7.88 0 0 0 2.79-4l-2.66-.72a6.7 6.7 0 0 1-.67 1.42 4.32 4.32 0 0 1-1.08 1.17 5.1 5.1 0 0 1-1.6.79A7.47 7.47 0 0 1 30 23a5.69 5.69 0 0 1-4.32-1.62 6.33 6.33 0 0 1-1.65-4.28h14.43v-2.3a8.27 8.27 0 0 0-2-5.18zm-12.32 4.89a5.88 5.88 0 0 1 .63-2 5.59 5.59 0 0 1 3.06-2.66A6.34 6.34 0 0 1 30 9.5a5.92 5.92 0 0 1 2 .36 5.84 5.84 0 0 1 1.76 1 5.11 5.11 0 0 1 1.26 1.58 5.17 5.17 0 0 1 .56 2.09zm35.65 6.98V7.34H57v2.81h-.43a5.68 5.68 0 0 0-2.36-2.5 6.86 6.86 0 0 0-3.33-.81 8.46 8.46 0 0 0-3.2.61A7.64 7.64 0 0 0 45 9.23a8.31 8.31 0 0 0-1.78 2.86 10.79 10.79 0 0 0-.63 3.91v.58a10.9 10.9 0 0 0 .65 3.92A8.31 8.31 0 0 0 45 23.33a7.42 7.42 0 0 0 2.64 1.76 8.88 8.88 0 0 0 3.27.59 6.46 6.46 0 0 0 3.22-.86 5.85 5.85 0 0 0 2.39-2.66H57v.22a2.76 2.76 0 0 0 .77 2 2.67 2.67 0 0 0 2 .79h1.91v-2.58h-.9q-.99 0-.99-1.08zm-2.81-5a7.89 7.89 0 0 1-.43 2.68 6.36 6.36 0 0 1-1.19 2.07 5.13 5.13 0 0 1-1.82 1.33 5.7 5.7 0 0 1-2.32.47 5.43 5.43 0 0 1-4.16-1.71 6.7 6.7 0 0 1-1.6-4.77V16a7.79 7.79 0 0 1 .43-2.64 6 6 0 0 1 1.21-2A5.47 5.47 0 0 1 48.93 10a5.57 5.57 0 0 1 2.3-.47 5.43 5.43 0 0 1 2.28.49 5.53 5.53 0 0 1 1.83 1.35 6.19 6.19 0 0 1 1.21 2.07A7.79 7.79 0 0 1 57 16zm19.79-9.68a5.81 5.81 0 0 0-2.88.7A4.61 4.61 0 0 0 72 9.71h-.43V7.34H65v2.59h3.67v12.66h-4.1v2.59h11.48v-2.59h-4.53V15a8.88 8.88 0 0 1 .25-2.16 5.16 5.16 0 0 1 .79-1.76 3.89 3.89 0 0 1 1.35-1.19 4 4 0 0 1 1.92-.43 4.13 4.13 0 0 1 2.91 1.1 4.68 4.68 0 0 1 1.19 3.58l3-.43a7.63 7.63 0 0 0-1.8-5.11 5.7 5.7 0 0 0-4.36-1.77zM95.88 0h-2.81v7.34h-5.61v2.59h5.61v12.45a2.76 2.76 0 0 0 .77 2 2.67 2.67 0 0 0 2 .79h6.08v-2.58h-5.07q-1 0-1-1.08V9.93h6.91V7.34h-6.88zm58.77 9.21A7.86 7.86 0 0 0 152 7.45a8.11 8.11 0 0 0-3.13-.61 7.79 7.79 0 0 0-3.6.85 6.18 6.18 0 0 0-2.59 2.46h-.43V0h-2.81v25.18h2.81v-2.73h.43a5.33 5.33 0 0 0 1.15 1.42 7.4 7.4 0 0 0 1.49 1 7.1 7.1 0 0 0 1.71.61 8.2 8.2 0 0 0 1.76.2 8.69 8.69 0 0 0 3.2-.59 7.53 7.53 0 0 0 2.64-1.75 8.13 8.13 0 0 0 1.78-2.84 10.81 10.81 0 0 0 .65-3.89v-.71a10.45 10.45 0 0 0-.67-3.85 8.39 8.39 0 0 0-1.74-2.84zm-.41 7.41a7.48 7.48 0 0 1-.45 2.66 5.75 5.75 0 0 1-1.26 2 5.64 5.64 0 0 1-1.89 1.28 6.1 6.1 0 0 1-2.37.45 5.82 5.82 0 0 1-2.34-.47 5.64 5.64 0 0 1-1.93-1.31 6.32 6.32 0 0 1-1.28-2.07 7.35 7.35 0 0 1-.47-2.68V16a7.26 7.26 0 0 1 .47-2.64 6.33 6.33 0 0 1 1.28-2.03 5.86 5.86 0 0 1 1.93-1.33 5.64 5.64 0 0 1 2.34-.49 6 6 0 0 1 2.36.47 5.7 5.7 0 0 1 1.91 1.31 6 6 0 0 1 1.26 2 7.23 7.23 0 0 1 .45 2.61zm22.03-7.37a8.39 8.39 0 0 0-2.86-1.8 9.66 9.66 0 0 0-6.76 0 8.4 8.4 0 0 0-2.86 1.8 8.76 8.76 0 0 0-2 2.9 9.76 9.76 0 0 0-.74 3.9v.43a9.85 9.85 0 0 0 .74 3.94 8.67 8.67 0 0 0 2 2.88 8.31 8.31 0 0 0 2.84 1.78 9.79 9.79 0 0 0 6.82 0 8.29 8.29 0 0 0 2.86-1.78 8.7 8.7 0 0 0 2-2.88 9.87 9.87 0 0 0 .74-3.94V16a9.78 9.78 0 0 0-.74-3.9 8.76 8.76 0 0 0-2.04-2.85zm-.16 7.23a7.46 7.46 0 0 1-.47 2.72 6.21 6.21 0 0 1-1.29 2.07 5.58 5.58 0 0 1-1.92 1.31 6.58 6.58 0 0 1-4.79 0 5.56 5.56 0 0 1-1.92-1.31 6.18 6.18 0 0 1-1.29-2.07 7.44 7.44 0 0 1-.47-2.72V16a7.24 7.24 0 0 1 .47-2.64 6.18 6.18 0 0 1 1.29-2.07 6 6 0 0 1 1.94-1.29 6.05 6.05 0 0 1 4.75 0 6 6 0 0 1 1.94 1.35 6.21 6.21 0 0 1 1.29 2.07 7.26 7.26 0 0 1 .47 2.64zm17.06-9.65a5.85 5.85 0 0 0-5.76 3.53H187v-3h-2.81v17.82H187V15.9a7 7 0 0 1 1.46-4.66 5 5 0 0 1 4-1.75 4.36 4.36 0 0 1 3.42 1.4 6.13 6.13 0 0 1 1.26 4.21v10.08h2.81V14.53q0-3.85-1.83-5.77a6.49 6.49 0 0 0-4.95-1.93zm27.46 2.81a8.46 8.46 0 0 0-2.63-2 8.32 8.32 0 0 0-3.8-.81 8.94 8.94 0 0 0-3.47.67A8.69 8.69 0 0 0 208 9.33a8.29 8.29 0 0 0-1.85 2.79 9.08 9.08 0 0 0-.67 3.49v.86a10.38 10.38 0 0 0 .65 3.74 8.77 8.77 0 0 0 1.8 2.91 7.89 7.89 0 0 0 2.7 1.88 9 9 0 0 0 3.51.67 8.77 8.77 0 0 0 5.49-1.57 7.88 7.88 0 0 0 2.79-4l-2.66-.72a6.7 6.7 0 0 1-.67 1.42 4.32 4.32 0 0 1-1.09 1.14 5.1 5.1 0 0 1-1.6.79 7.47 7.47 0 0 1-2.19.29 5.69 5.69 0 0 1-4.32-1.62 6.33 6.33 0 0 1-1.65-4.28h14.39v-2.3a8.27 8.27 0 0 0-2-5.18zm-12.32 4.89a5.88 5.88 0 0 1 .63-2A5.59 5.59 0 0 1 212 9.88a6.34 6.34 0 0 1 2.21-.38 5.92 5.92 0 0 1 2 .36 5.84 5.84 0 0 1 1.76 1 5.11 5.11 0 0 1 1.26 1.58 5.17 5.17 0 0 1 .56 2.09zm33.48 1.78a9 9 0 0 0-4.79-1.49 9.59 9.59 0 0 1-4-.9 2.19 2.19 0 0 1-1.1-2 2 2 0 0 1 .32-1.13 2.67 2.67 0 0 1 .86-.81 4.25 4.25 0 0 1 1.24-.49 6.43 6.43 0 0 1 1.46-.16 4.87 4.87 0 0 1 3.15 1 3.82 3.82 0 0 1 1.38 2.7l2.66-.65a6.86 6.86 0 0 0-.63-2 5.47 5.47 0 0 0-1.34-1.8 7.15 7.15 0 0 0-2.23-1.26 9 9 0 0 0-3.09-.49 8.85 8.85 0 0 0-2.41.32 6.7 6.7 0 0 0-2.07 1 4.9 4.9 0 0 0-1.46 1.6 4.42 4.42 0 0 0-.54 2.21v.22a4.15 4.15 0 0 0 1.65 3.56 9 9 0 0 0 4.75 1.44 9.92 9.92 0 0 1 3.85.83 2.26 2.26 0 0 1 1.19 2.16 2.45 2.45 0 0 1-1.21 2.18 5.81 5.81 0 0 1-3.18.77 5.44 5.44 0 0 1-3.74-1.24 4.77 4.77 0 0 1-1.58-3.29l-2.66.65a7 7 0 0 0 .58 2.36 6.14 6.14 0 0 0 1.49 2.09 7.41 7.41 0 0 0 2.48 1.48 11.42 11.42 0 0 0 6.44.18 6.46 6.46 0 0 0 2.23-1.1 5.17 5.17 0 0 0 1.44-1.74 5 5 0 0 0 .52-2.32v-.22a4.26 4.26 0 0 0-1.66-3.66zM113.34 7.38h6.22V1.16h2.59v6.22h6.22V10h-6.22v6.2h-2.59V10h-6.22z"></path>
</svg>