<svg viewBox="0 0 197 38" version="1.1" xmlns="http://www.w3.org/2000/svg" xmlns:xlink="http://www.w3.org/1999/xlink">
    <!-- Generator: Sketch 47.1 (45422) - http://www.bohemiancoding.com/sketch -->
    <title>Page 1</title>
    <desc>Created with Sketch.</desc>
    <defs>
        <polygon id="path-1" points="11.347886 0.097958208 11.347886 15.054194 0.145343873 15.054194 0.145343873 0.097958208 11.347886 0.097958208"></polygon>
    </defs>
    <g id="V12" stroke="none" stroke-width="1" fill="none" fill-rule="evenodd">
        <g id="FD-Pricing" transform="translate(-121.000000, -2880.000000)">
            <g id="Group-18" transform="translate(0.000000, 1890.000000)">
                <g id="Footer" transform="translate(0.000000, 781.000000)">
                    <g id="Page-1" transform="translate(121.000000, 209.000000)">
                        <path d="M0,18.7164179 C0,5.80844047 5.68953862,0 18,0 C30.4138922,0 36,5.91598792 36,18.7164179 C36,31.6243953 30.3104614,37.4328358 18,37.4328358 C5.58610782,37.4328358 0,31.5168479 0,18.7164179" id="Fill-1" fill="#2CC7D5"></path>
                        <polygon id="Fill-3" fill="#FFFFFF" points="17.9064869 0 0 18.6838511 36 18.7489847 17.9064869 37.4328358"></polygon>
                        <polygon id="Fill-5" fill="#55A8FF" points="0 18.7164179 18 37.4328358 18 18.7486964"></polygon>
                        <polygon id="Fill-7" fill="#55A8FF" points="18 0 18 18.6837886 36 18.7164179"></polygon>
                        <path d="M63.0326784,27.5784609 L63.0326784,12.6803324 L56.8011475,28.5307032 C56.6528764,28.8993996 56.3559887,29.1144279 56,29.1144279 C55.6142879,29.1144279 55.3175731,28.8993996 55.1988525,28.5307032 L48.9673216,12.6803324 L48.9673216,27.5784609 C48.9673216,28.4078043 48.314618,29.1144279 47.5132977,29.1144279 C46.6824269,29.1144279 46,28.4078043 46,27.5784609 L46,10.8679772 C46,9.48567847 47.0978623,8.31840796 48.4926124,8.31840796 C49.531028,8.31840796 50.4510688,8.96349263 50.8070576,9.91573492 L56,23.2167153 L61.1927696,9.91573492 C61.5489312,8.96349263 62.4687991,8.31840796 63.5073876,8.31840796 C64.9021377,8.31840796 66,9.48567847 66,10.8679772 L66,27.5784609 C66,28.4078043 65.3175731,29.1144279 64.4865295,29.1144279 C63.685382,29.1144279 63.0326784,28.4078043 63.0326784,27.5784609" id="Fill-9" fill="#262626"></path>
                        <path d="M70.0000256,31.850688 C70.0857172,31.850688 70.1714088,31.8811426 70.3143391,31.8811426 C71.2571132,31.8811426 71.8857403,31.5466739 72.3143647,30.4522583 L73.1143749,28.5063553 L68.0570723,15.4022299 C68,15.2198568 68,15.0679382 68,14.8855652 C68,14.1254412 68.5429354,13.5174129 69.257254,13.5174129 C69.7714037,13.5174129 70.2857198,13.8821591 70.457103,14.3687234 L74.4856071,25.1923 L78.5144441,14.3687234 C78.6858273,13.8821591 79.171524,13.5174129 79.714293,13.5174129 C80.4286117,13.5174129 81,14.1254412 81,14.8855652 C81,15.0679382 80.9427613,15.2503113 80.8856891,15.4326844 L74.7714677,31.1514732 C73.9142188,33.4619453 72.371437,34.2829783 70.3714114,34.3134328 C70.2286475,34.3134328 70.0570979,34.3134328 69.8570953,34.2829783 C69.257254,34.2222463 68.8000102,33.7054045 68.8000102,33.0667446 C68.8000102,32.3675298 69.371565,31.850688 70.0000256,31.850688" id="Fill-11" fill="#262626"></path>
                        <path d="M84,18.7165057 C84,12.5379564 88.4095286,8.31840796 93.9216084,8.31840796 C96.9386721,8.31840796 99.0854874,9.49387867 100.651968,11.2720919 C100.884102,11.5132591 101,11.8748344 101,12.2365852 C101,13.0201153 100.390944,13.6530475 99.636594,13.6530475 C99.2015543,13.6530475 98.8244636,13.4722599 98.5923298,13.1707131 C97.4608887,11.8448201 95.8073999,11.0009104 93.9216084,11.0009104 C90.0052374,11.0009104 86.9881737,14.195586 86.9881737,18.7165057 C86.9881737,23.2072356 90.0052374,26.4321009 93.9216084,26.4321009 C95.8073999,26.4321009 97.4608887,25.5881913 98.6213887,24.2621227 C98.8533536,23.9607514 99.2015543,23.7799638 99.636594,23.7799638 C100.390944,23.7799638 101,24.4128961 101,25.1964262 C101,25.5580015 100.884102,25.9197523 100.651968,26.1609195 C99.0564285,27.9391327 96.9386721,29.1144279 93.9216084,29.1144279 C88.4095286,29.1144279 84,24.8950549 84,18.7165057" id="Fill-13" fill="#262626"></path>
                        <path d="M115.110662,21.3006023 C115.110662,18.5010692 113.481348,15.9783362 110.5,15.9783362 C107.549262,15.9783362 105.889338,18.5010692 105.889338,21.3006023 C105.889338,24.1309507 107.549262,26.6535046 110.5,26.6535046 C113.481348,26.6535046 115.110662,24.1309507 115.110662,21.3006023 M103,21.3006023 C103,17.0244436 105.889338,13.5174129 110.5,13.5174129 C115.141272,13.5174129 118,17.0244436 118,21.3006023 C118,25.6073972 115.141272,29.1144279 110.5,29.1144279 C105.889338,29.1144279 103,25.6073972 103,21.3006023" id="Fill-15" fill="#262626"></path>
                        <path d="M139,18.07175 L139,27.7107038 C139,28.4904092 138.379608,29.1144279 137.641021,29.1144279 C136.931853,29.1144279 136.341052,28.4904092 136.341052,27.7107038 L136.341052,18.9139481 C136.341052,17.1670592 135.602637,16.0127609 133.859483,16.0127609 C132.412072,16.0127609 130.994082,17.0735018 130.314506,18.1653074 L130.314506,27.7107038 C130.314506,28.4904092 129.723705,29.1144279 128.985118,29.1144279 C128.276123,29.1144279 127.655902,28.4904092 127.655902,27.7107038 L127.655902,18.9139481 C127.655902,17.1670592 126.946735,16.0127609 125.144741,16.0127609 C123.75617,16.0127609 122.367771,17.1047482 121.658776,18.1963721 L121.658776,27.7107038 C121.658776,28.4904092 121.038383,29.1144279 120.329216,29.1144279 C119.590801,29.1144279 119,28.4904092 119,27.7107038 L119,15.1394981 C119,14.359611 119.590801,13.7357741 120.299796,13.7357741 C121.038383,13.7357741 121.658776,14.359611 121.658776,15.1394981 L121.658776,16.0127609 C122.249576,15.0770054 124.140173,13.5174129 126.267331,13.5174129 C128.423909,13.5174129 129.694113,14.7027759 130.1373,16.3246794 C130.96449,14.921137 132.855087,13.5174129 134.952653,13.5174129 C137.582009,13.5174129 139,15.0457591 139,18.07175" id="Fill-17" fill="#262626"></path>
                        <path d="M152.157631,21.2094845 C152.157631,18.1691659 150.494579,15.9495262 147.773188,15.9495262 C146.109959,15.9495262 144.447083,16.9226547 143.721215,18.1082568 L143.721215,24.3409896 C144.447083,25.4963142 146.109959,26.4997202 147.773188,26.4997202 C150.494579,26.4997202 152.157631,24.2802576 152.157631,21.2094845 M155,21.2094845 C155,26.0131559 152.308898,28.9318335 148.498881,28.9318335 C146.593872,28.9318335 144.900531,28.0502455 143.721215,26.4389882 L143.721215,32.9452806 C143.721215,33.7054045 143.086212,34.3134328 142.360519,34.3134328 C141.604714,34.3134328 141,33.7054045 141,32.9452806 L141,15.0983928 C141,14.3382689 141.604714,13.7302405 142.360519,13.7302405 C143.086212,13.7302405 143.721215,14.3382689 143.721215,15.0983928 L143.721215,15.9495262 C144.809841,14.4901874 146.533295,13.5174129 148.498881,13.5174129 C152.308898,13.5174129 155,16.405813 155,21.2094845" id="Fill-19" fill="#262626"></path>
                        <path d="M172,26.4688224 C172,25.7919688 172.481936,25.2691898 173.105531,25.2691898 C173.332383,25.2691898 173.559069,25.3614555 173.729456,25.4843569 C174.778356,26.3149269 176.138972,26.8995149 177.584946,26.8995149 C179.51269,26.8995149 180.533358,26.03813 180.533358,24.7766884 C180.533358,23.3002589 178.974124,22.8079365 177.216435,22.3772441 C174.891617,21.7928353 172.170056,21.1159816 172.170056,17.916424 C172.170056,15.5477946 174.041171,13.5174129 177.386492,13.5174129 C179.285839,13.5174129 180.788608,14.1326367 181.950934,15.0556515 C182.206019,15.2709977 182.404473,15.5786096 182.404473,15.9784871 C182.404473,16.5937108 181.922537,17.1166689 181.355572,17.1166689 C181.157118,17.1166689 180.930266,17.0244033 180.788608,16.9013227 C179.909764,16.1938333 178.718874,15.7631409 177.414889,15.7631409 C175.685433,15.7631409 174.608135,16.5014452 174.608135,17.7012569 C174.608135,18.9933343 176.082341,19.4240267 177.7834,19.8547192 C180.164848,20.439128 183,21.1466174 183,24.5613421 C183,27.1148611 181.07209,29.1144279 177.47152,29.1144279 C175.572008,29.1144279 173.871114,28.5914698 172.481936,27.4531087 C172.198454,27.2379417 172,26.8686999 172,26.4688224" id="Fill-21" fill="#262626"></path>
                        <g id="Group-25" transform="translate(185.000000, 13.517413)">
                            <mask id="mask-2" fill="white">
                                <use xlink:href="#path-1"></use>
                            </mask>
                            <g id="Clip-24"></g>
                            <path d="M0.145343873,12.5172792 C0.145343873,11.868233 0.636156881,11.3669316 1.27123764,11.3669316 C1.50226781,11.3669316 1.73312984,11.4554067 1.90648654,11.5732589 C2.97487498,12.3697062 4.36055158,12.9302773 5.83315875,12.9302773 C7.79641079,12.9302773 8.83587842,12.104281 8.83587842,10.8946638 C8.83587842,9.47889112 7.24792431,9.00679509 5.45786083,8.59379696 C3.09022192,8.03339767 0.31853243,7.38435153 0.31853243,4.31624274 C0.31853243,2.04492484 2.22411099,0.097958208 5.63104939,0.097958208 C7.56538062,0.097958208 9.0958294,0.687906447 10.2795648,1.5730006 C10.5393476,1.77949967 10.741457,2.07447379 10.741457,2.45792296 C10.741457,3.0478712 10.250644,3.54934438 9.67323669,3.54934438 C9.47112732,3.54934438 9.24009715,3.46086933 9.0958294,3.34284532 C8.20062952,2.66442203 6.98797333,2.2514239 5.6599702,2.2514239 C3.89865938,2.2514239 2.80151828,2.95939615 2.80151828,4.10991547 C2.80151828,5.34890985 4.30287811,5.76190798 6.03526812,6.1749061 C8.4605805,6.73530539 11.3479532,7.41372869 11.3479532,10.6881648 C11.3479532,13.1367764 9.38453304,15.054194 5.71764367,15.054194 C3.7831443,15.054194 2.05092244,14.5527209 0.636156881,13.4611276 C0.347453238,13.2548004 0.145343873,12.9007283 0.145343873,12.5172792" id="Fill-23" fill="#262626" mask="url(#mask-2)"></path>
                        </g>
                        <path d="M163.226721,26.6533537 C164.889929,26.6533537 166.55296,25.6382524 167.278644,24.4690765 L167.278644,18.1625852 C166.55296,16.9629526 164.889929,15.9784871 163.226721,15.9784871 C160.505365,15.9784871 158.842333,18.2243942 158.842333,21.3005129 C158.842333,24.4076258 160.505365,26.6533537 163.226721,26.6533537 M162.501214,13.5174129 C164.466423,13.5174129 166.190031,14.5016993 167.278644,15.9784871 L167.278644,15.1172813 C167.278644,14.3479829 167.913462,13.7327592 168.639322,13.7327592 C169.395293,13.7327592 170,14.3479829 170,15.1172813 L170,27.7277558 C170,28.4968751 169.395293,29.1120988 168.639322,29.1120988 C167.913462,29.1120988 167.278644,28.4968751 167.278644,27.7277558 L167.278644,26.591903 C166.099342,28.222228 164.406022,29.1144279 162.501214,29.1144279 C158.691244,29.1144279 156,26.1612105 156,21.3005129 C156,16.4399945 158.691244,13.5174129 162.501214,13.5174129" id="Fill-26" fill="#262626"></path>
                    </g>
                </g>
            </g>
        </g>
    </g>
</svg>