<svg id="Layer_1" data-name="Layer 1" xmlns="http://www.w3.org/2000/svg" viewBox="0 0 658.48 202.6"><defs><style>.cls-1{fill:#262626;}.cls-2{fill:#f3764b;}</style></defs><title>Artboard 6</title><path class="cls-1" d="M15,52.71H47.58c23.6,0,36.56,14.34,36.56,32.08,0,13.11-6.48,23.13-16.35,28.53l25.6,47.35H69.33l-21-42.26H36.79v42.26H15ZM47,100.06c7.86,0,14.8-4.94,14.8-14.5,0-8.64-6-14-15.88-14h-9.1v28.54Z"></path><path class="cls-1" d="M128.46,78c25,0,39.17,16.66,39.17,43,0,1.54,0,3.08-.15,4.62H110.72c.46,10.79,9.1,18.51,21,18.51a23.57,23.57,0,0,0,19.59-9.87l14,10.64c-3.08,5.71-13.87,17.74-33.93,17.74-25.9,0-42.41-17.9-42.41-42.11C89,96.2,105.48,78,128.46,78ZM146,111.78c-.47-9.87-7.56-16.35-17.28-16.35-10,0-16.5,7.09-17.43,16.35Z"></path><path class="cls-1" d="M170.24,147.72l12.49-11.11c4,4.63,9.41,8.79,18.51,8.79,6,0,9.87-2.62,9.87-7.25,0-12.33-38.1-7.55-38.1-36.24C173,87,185.81,78,202.32,78c15.26,0,23.75,8,27.61,14.35l-14,10.48c-2.47-3.08-6.94-7.71-14.5-7.71-4.93,0-8.33,2.47-8.33,6.48,0,12.8,38.25,6.63,38.25,35.47,0,15.74-13.57,25.61-31,25.61C184.43,162.68,174.56,154.66,170.24,147.72Z"></path><path class="cls-1" d="M267,109c8.18,0,14.5,2.47,17.43,4.47v-5.24c0-7.09-5.24-11.87-14.65-11.87-8,0-15.42,2.62-21.44,5.7l-8-14.49A60,60,0,0,1,272.14,78c25.91,0,33.62,13.57,33.62,31.62v51H286.94l-1.39-5.24c-4.16,4.47-10.33,7.25-19.59,7.25-16.34,0-30.23-10-30.23-27C235.73,119.8,248.23,109,267,109Zm4,37.17c8,0,13.88-4.31,13.88-11.1,0-7.1-5.87-11.26-14-11.26S257,128.44,257,135.07,263,146.17,271.06,146.17Z"></path><path class="cls-1" d="M317.62,49.16H338.9V160.67H317.62Z"></path><path class="cls-1" d="M364.19,188.28l11.26-29.61L344.45,80h22.83l18,52.59L403.52,80h22.21L384.55,188.28Z"></path><path class="cls-1" d="M437.9,63h21V80H474V97.28H458.87v31.16c0,12,3.7,14.5,11.88,14.5a33.49,33.49,0,0,0,3.85-.16V161a43.31,43.31,0,0,1-9.09.77c-19.28,0-27.77-10.8-27.77-32.7V97.28h-8.48V80h8.64Z"></path><path class="cls-1" d="M483.39,80h21.28v80.66H483.39Z"></path><path class="cls-1" d="M575.61,136.61,581.32,154a40.75,40.75,0,0,1-25.14,8.64c-25.15,0-43-17.58-43-42.11S531.5,78,556,78a41,41,0,0,1,25.45,8.64l-6,17.89a27.41,27.41,0,0,0-18.81-7.71c-13.73,0-22.21,10.64-22.21,23.6,0,13.72,9.56,23.44,23,23.44C565.58,143.86,572.06,139.54,575.61,136.61Z"></path><path class="cls-1" d="M583.93,147.72l12.49-11.11c4,4.63,9.41,8.79,18.5,8.79,6,0,9.88-2.62,9.88-7.25,0-12.33-38.1-7.55-38.1-36.24C586.7,87,599.5,78,616,78c15.27,0,23.76,8,27.61,14.35l-14,10.48c-2.47-3.08-6.94-7.71-14.5-7.71-4.94,0-8.33,2.47-8.33,6.48,0,12.8,38.25,6.63,38.25,35.47,0,15.74-13.57,25.61-31,25.61C598.11,162.68,588.24,154.66,583.93,147.72Z"></path><path class="cls-2" d="M480.53,45.8c3.06-10.06,2-21.15-1.77-25.75,4.71,2.61,9.08,8.49,10.12,15.18,5.24-11.48-5.36-27.18-5.36-27.18a84,84,0,0,1,15.82,17.08c6.28,9.16,11.94,21,10.07,31-1.59,8.52-6.45,14.23-16,14.23A15.06,15.06,0,0,1,478.49,55.9a16.63,16.63,0,0,1,.63-5.61Z"></path></svg>