<svg height='100px' width='100px'  fill="#000000" xmlns="http://www.w3.org/2000/svg" xmlns:xlink="http://www.w3.org/1999/xlink" version="1.1" x="0px" y="0px" viewBox="0 0 100 100" style="enable-background:new 0 0 100 100;" xml:space="preserve"><path d="M91.8,28.6H7.5C6.1,28.6,5,27.5,5,26s1.2-2.6,2.6-2.6h84.3c1.4,0,2.6,1.2,2.6,2.6S93.3,28.6,91.8,28.6z"></path><path d="M91.8,51.3H7.5c-1.4,0-2.6-1.2-2.6-2.6s1.2-2.6,2.6-2.6h84.3c1.4,0,2.6,1.2,2.6,2.6S93.3,51.3,91.8,51.3z"></path><path d="M91.8,73.9H7.5c-1.4,0-2.6-1.2-2.6-2.6c0-1.4,1.2-2.6,2.6-2.6h84.3c1.4,0,2.6,1.2,2.6,2.6C94.4,72.8,93.3,73.9,91.8,73.9z"></path></svg>