<?xml version="1.0" standalone="no"?>
<svg viewBox="0 0 200 200" xmlns="http://www.w3.org/2000/svg">
  <path fill="#0F62FE" d="M46.8,-80C60.6,-73.1,71.8,-60.5,79.9,-46.2C88,-31.9,93,-16,92.3,-0.4C91.6,15.2,85.2,30.3,76.8,44.1C68.4,57.8,58,70.2,44.9,77.7C31.7,85.3,15.9,88,0.5,87.2C-14.9,86.3,-29.8,81.8,-42.9,74.3C-56,66.7,-67.4,56.1,-74.6,43.2C-81.9,30.3,-85,15.2,-85.5,-0.3C-86.1,-15.8,-84.2,-31.6,-77.4,-45.3C-70.6,-59,-59,-70.5,-45.3,-77.5C-31.6,-84.6,-15.8,-87.1,0.4,-87.7C16.5,-88.3,33,-87,46.8,-80Z" transform="translate(100 100)" />
  <path fill="#BAE6FF" d="M48.3,-59C57.2,-50.1,55.3,-29.8,58.5,-10.5C61.7,8.8,70.1,27.1,64.1,36.5C58.1,45.9,37.6,46.5,19.2,53.7C0.7,60.9,-15.8,74.7,-29,72.9C-42.2,71,-52.3,53.5,-61.7,36.1C-71.2,18.8,-80,1.5,-79.6,-16.3C-79.1,-34.2,-69.4,-52.6,-54.6,-60.5C-39.8,-68.3,-19.9,-65.5,-0.1,-65.4C19.7,-65.3,39.4,-67.9,48.3,-59Z" transform="translate(100 100)" />
</svg>
