<?xml version="1.0" standalone="no"?>
<svg viewBox="0 0 200 200" xmlns="http://www.w3.org/2000/svg">
  <path fill="#08BDBA" d="M46.6,-73C60.8,-63.3,73,-51.1,79.5,-36.4C86,-21.8,86.9,-4.6,84.1,11.9C81.4,28.3,75.2,44,64.9,56.8C54.7,69.6,40.5,79.5,24.8,83.6C9.2,87.7,-7.8,86,-24,81.4C-40.3,76.8,-55.7,69.3,-67.8,57.5C-79.8,45.8,-88.5,29.9,-90.4,13.3C-92.4,-3.3,-87.7,-20.6,-79.6,-35.6C-71.6,-50.5,-60.1,-63.1,-46.3,-73C-32.4,-82.8,-16.2,-90,0,-90C16.2,-89.9,32.4,-82.7,46.6,-73Z" transform="translate(100 100)" />
  <path fill="#A7F0BA" d="M40.5,-65.8C50.1,-56.8,54,-41.6,56,-28.2C58,-14.8,58.3,-3.2,57.2,8.6C56.1,20.4,53.6,32.4,46.6,40.4C39.7,48.5,28.2,52.6,15,61C1.8,69.5,-13.1,82.4,-26.6,82.2C-40,82,-52.1,68.8,-61.8,55C-71.5,41.2,-78.7,26.8,-76,13.9C-73.3,0.9,-60.6,-10.5,-52.6,-22.3C-44.5,-34.2,-41.1,-46.4,-33.1,-56.2C-25.2,-65.9,-12.6,-73.2,1.4,-75.4C15.4,-77.6,30.9,-74.8,40.5,-65.8Z" transform="translate(100 100)" />
</svg>
