<svg xmlns="http://www.w3.org/2000/svg" viewBox="0 0 1416 330" fill="none">
<path d="M178.175 0.000278574V101.47C178.175 125.334 158.76 144.751 134.896 144.751C111.032 144.751 91.6147 125.334 91.6147 101.47V0.000278574H0V101.47C0 175.852 60.5133 236.364 134.896 236.364C209.276 236.364 269.791 175.852 269.791 101.47V0.000278574H178.175Z" fill="rgb(0,137,150)"/>
<path d="M67.4561 329.125H202.335L134.896 261.685L67.4561 329.125Z" fill="rgb(0,137,150)"/>
<path d="M559.154 98.6238L530.537 -0.000190492H530.314H463.613H463.39L434.771 98.6238L407.547 -0.000190492H340.665L400.518 217.404H467.525L496.962 115.477L526.402 217.404H593.407L653.262 -0.000190492H586.379L559.154 98.6238Z" fill="#262626"/>
<path d="M776.116 135.823L793.816 71.6216L811.518 135.823H776.116ZM744.348 0.000318134L685.458 217.404H753.627L761.414 189.156H826.22L834.007 217.404H902.176L843.286 0.000318134H744.348Z" fill="#262626"/>
<path d="M1043.56 7.39934e-05H976.895V217.404H1130.23V151.071H1043.56V7.39934e-05Z" fill="#262626"/>
<path d="M1320.51 105.27L1396.04 0.00054193H1319.32L1273.56 63.7792V0.00054193H1206.89V217.405H1273.56V178.135L1285.76 161.135L1333.26 217.405H1415.18L1320.51 105.27Z" fill="#262626"/>
</svg>