<svg width="52" height="37" viewBox="0 0 52 37" xmlns="http://www.w3.org/2000/svg"><g fill="#323232" fill-rule="evenodd"><path d="M51.978 23.146c-.237-4.065-2.708-6.87-6.297-7.15-3.82-.297-6.66 2.23-7.62 6.755-.67 3.2-2.54 4.66-5.56 4.34-.96-.1-2.12-.62-3.34-1.49l-.01-.01c-.15-.11-.31-.23-.47-.36l-.09-.07c-.15-.12-.31-.25-.47-.39l-.08-.07-.17-.15c-.58-.52-1.16-1.12-1.72-1.78v.01l-.15-.17-.14-.17c-.13-.16-.26-.33-.39-.5l-.07-.1c-.16-.2-.31-.41-.46-.62l-.04-.06c-1.58-2.25-2.94-5.05-3.7-8.26-1.08-4.567-.06-7.11.985-8.444.98-1.257 2.42-1.977 3.95-1.977 1.53 0 2.98.72 3.96 1.98 1.05 1.33 2.07 3.88.99 8.44-.83 3.516-2.38 6.55-4.16 8.9.57.68 1.16 1.283 1.73 1.8 2.106-2.71 3.887-6.19 4.817-10.13 1.305-5.528-.07-8.78-1.45-10.54C30.54 1.06 28.4 0 26.11 0c-2.28 0-4.422 1.062-5.874 2.912-1.37 1.76-2.75 5.02-1.44 10.546.76 3.21 2.08 6.11 3.68 8.54.12.174.23.345.35.514.057.07.11.15.16.22l.466.63.047.06c.17.222.35.44.52.655l.16.19c.93 1.1 1.91 2.06 2.9 2.843 1.76 1.395 3.56 2.25 5.16 2.42 4.23.445 7.3-1.904 8.22-6.283.4-1.91 1.59-5.07 5.03-4.8 2.78.215 3.91 2.637 4.04 4.83.18 3.077-.98 6.17-3.09 8.28-2.16 2.156-5.15 3.17-8.636 2.924-3.7-.26-6.45-2.29-7.76-3.49-2.24-2.03-5.62-2.06-7.87-.06-1.36 1.22-4.21 3.29-7.98 3.55-3.482.25-6.47-.76-8.63-2.92-2.115-2.11-3.27-5.2-3.09-8.28.125-2.19 1.253-4.61 4.035-4.83.137-.01.27-.02.4-.02 3.135 0 4.246 2.99 4.63 4.82.914 4.33 4.16 6.74 8.47 6.29 1.6-.17 3.4-1.03 5.163-2.42-.59-.54-1.17-1.14-1.73-1.79-1.343 1.03-2.64 1.637-3.69 1.75-3.09.32-5.153-1.22-5.81-4.34-.955-4.53-3.804-7.05-7.62-6.754-3.59.28-6.06 3.083-6.3 7.15-.22 3.77 1.21 7.58 3.82 10.18 1.864 1.86 5.21 4 10.524 3.63 3.326-.23 6.676-1.71 9.43-4.16 1.31-1.17 3.29-1.15 4.6.04 2.67 2.43 5.95 3.89 9.24 4.12.41.03.81.043 1.2.043 4.63 0 7.61-1.96 9.33-3.678 2.61-2.6 4.04-6.41 3.82-10.18"></path><path d="M26.5 34c-.828 0-1.5.67-1.5 1.5s.672 1.5 1.5 1.5 1.5-.67 1.5-1.5-.672-1.5-1.5-1.5"></path></g></svg>