<?xml version="1.0" standalone="no"?>
<svg viewBox="0 0 200 200" xmlns="http://www.w3.org/2000/svg">
  <path fill="#0F62FE" d="M42.6,-76.2C52.4,-68,55.7,-51.1,63.3,-36.9C70.8,-22.7,82.6,-11.4,80.3,-1.3C78.1,8.8,61.8,17.6,52.8,29C43.7,40.5,41.7,54.7,34.1,66.6C26.5,78.5,13.3,88.2,-0.7,89.4C-14.7,90.6,-29.4,83.4,-36.8,71.4C-44.3,59.5,-44.5,42.7,-45.9,29.9C-47.3,17.2,-49.7,8.6,-54.4,-2.7C-59,-14,-65.7,-27.9,-64,-39.9C-62.2,-51.9,-51.8,-61.9,-39.8,-68.7C-27.7,-75.6,-13.8,-79.2,1.3,-81.4C16.4,-83.6,32.7,-84.3,42.6,-76.2Z" transform="translate(100 100)" />
</svg>
